<svg xmlns="http://www.w3.org/2000/svg" width="65" height="65.002"><defs><clipPath id="a"><rect width="31.084" height="31.083" rx="7.7" fill="none"/></clipPath></defs><g transform="translate(6436 -8215)"><rect width="31.084" height="31.083" rx="7.7" transform="translate(-6402.085 8248.917)" fill="#a4d7f1"/><g transform="translate(-6402.084 8248.915)" clip-path="url(#a)"><path d="M-12.51 13.686l-3.065-2.012a4.009 4.009 0 0 0-4.4.008l-12.047 7.954a2.94 2.94 0 0 1-3.179.039l-3.118-1.957a2.952 2.952 0 0 0-3.123 0l-3.159 1.982a2.936 2.936 0 0 1-3.12 0l-3.159-1.982a2.947 2.947 0 0 0-3.12 0l-3.159 1.982a2.936 2.936 0 0 1-3.12 0l-3.162-1.982a2.948 2.948 0 0 0-3.121 0l-3.159 1.982a2.936 2.936 0 0 1-3.12 0L-76 17.718a2.947 2.947 0 0 0-3.12 0v19.715H37.045V17.719a2.942 2.942 0 0 0-3.118 0l-3.162 1.982a2.936 2.936 0 0 1-3.121 0l-3.159-1.982a2.948 2.948 0 0 0-3.121 0l-3.159 1.982a2.94 2.94 0 0 1-3.123 0l-3.159-1.982a2.948 2.948 0 0 0-3.121 0l-3.159 1.982a2.936 2.936 0 0 1-3.121 0l-3.159-1.982a2.952 2.952 0 0 0-3.123 0l-3.159 1.982a2.936 2.936 0 0 1-3.12 0l-7.657-4.8" fill="#31a3d8"/><path d="M38.431 38.819H-80.516V16.954l.651-.407a4.346 4.346 0 0 1 4.595 0l3.159 1.979a1.56 1.56 0 0 0 1.646 0l3.162-1.981a4.342 4.342 0 0 1 4.592 0l3.159 1.979a1.565 1.565 0 0 0 1.649 0l3.159-1.979a4.33 4.33 0 0 1 4.592 0l3.162 1.979a1.536 1.536 0 0 0 1.649 0l3.157-1.978a4.347 4.347 0 0 1 4.595 0l3.118 1.954a1.555 1.555 0 0 0 1.68-.019l12.047-7.957a5.393 5.393 0 0 1 5.928-.006l3.065 2.009a1.386 1.386 0 0 1-1.521 2.317l-3.065-2.009a2.613 2.613 0 0 0-2.882 0l-12.044 7.954a4.336 4.336 0 0 1-4.681.058l-3.118-1.954a1.554 1.554 0 0 0-1.646 0l-3.162 1.981a4.354 4.354 0 0 1-4.592 0l-3.162-1.981a1.564 1.564 0 0 0-1.649 0l-3.157 1.979a4.352 4.352 0 0 1-4.6 0l-3.154-1.976a1.559 1.559 0 0 0-1.649 0l-3.162 1.981a4.353 4.353 0 0 1-4.592 0l-3.156-1.979a1.538 1.538 0 0 0-1-.227V36.05h113.4V18.666a1.527 1.527 0 0 0-1 .227l-3.159 1.979a4.347 4.347 0 0 1-4.595 0l-3.159-1.979a1.554 1.554 0 0 0-1.646 0l-3.162 1.981a4.353 4.353 0 0 1-4.592 0l-3.159-1.979a1.558 1.558 0 0 0-1.652 0l-3.156 1.979a4.342 4.342 0 0 1-4.592 0l-3.162-1.976a1.553 1.553 0 0 0-1.649 0l-3.158 1.977a4.358 4.358 0 0 1-4.595 0l-7.654-4.8a1.385 1.385 0 1 1 1.472-2.347l7.657 4.8a1.56 1.56 0 0 0 1.646 0l3.162-1.981a4.342 4.342 0 0 1 4.592 0l3.162 1.979a1.565 1.565 0 0 0 1.649 0l3.157-1.979a4.352 4.352 0 0 1 4.595 0l3.157 1.978a1.564 1.564 0 0 0 1.649 0l3.159-1.981a4.347 4.347 0 0 1 4.595 0l3.157 1.979a1.569 1.569 0 0 0 1.652 0l3.159-1.979a4.33 4.33 0 0 1 4.592 0l.648.407z" fill="#fff"/><path d="M-79.128 24.505a2.936 2.936 0 0 1 3.12 0l3.159 1.982a2.936 2.936 0 0 0 3.12 0l3.159-1.982a2.936 2.936 0 0 1 3.121 0l3.162 1.982a2.936 2.936 0 0 0 3.12 0l3.159-1.982a2.936 2.936 0 0 1 3.12 0l3.159 1.982a2.936 2.936 0 0 0 3.12 0l3.159-1.982a2.941 2.941 0 0 1 3.123 0l3.159 1.982a2.936 2.936 0 0 0 3.121 0l3.159-1.982a2.936 2.936 0 0 1 3.121 0l3.159 1.982a2.941 2.941 0 0 0 3.123 0l3.159-1.982a2.936 2.936 0 0 1 3.121 0l3.159 1.982a2.936 2.936 0 0 0 3.12 0l3.159-1.982a2.941 2.941 0 0 1 3.123 0l3.159 1.982a2.936 2.936 0 0 0 3.121 0l3.159-1.982a2.936 2.936 0 0 1 3.121 0l3.159 1.982a2.94 2.94 0 0 0 3.123 0l3.159-1.982a2.936 2.936 0 0 1 3.121 0l3.159 1.982a2.936 2.936 0 0 0 3.121 0l3.162-1.982a2.931 2.931 0 0 1 3.118 0v12.928H-79.128z" fill="#31a3d8"/><path d="M38.431 38.819H-80.516V23.741l.651-.407a4.358 4.358 0 0 1 4.595 0l3.159 1.981a1.554 1.554 0 0 0 1.646 0l3.162-1.981a4.354 4.354 0 0 1 4.592 0l3.159 1.981a1.565 1.565 0 0 0 1.649 0l3.159-1.979a4.33 4.33 0 0 1 4.592 0l3.162 1.979a1.53 1.53 0 0 0 1.649 0l3.157-1.985a4.358 4.358 0 0 1 4.595 0l3.157 1.981a1.569 1.569 0 0 0 1.652 0l3.159-1.979a4.33 4.33 0 0 1 4.592 0l3.159 1.979a1.565 1.565 0 0 0 1.649 0l3.159-1.979a4.347 4.347 0 0 1 4.595 0l3.159 1.981a1.554 1.554 0 0 0 1.646 0l3.162-1.981a4.342 4.342 0 0 1 4.592 0l3.162 1.979a1.565 1.565 0 0 0 1.649 0l3.157-1.979a4.347 4.347 0 0 1 4.595 0l3.161 1.98a1.558 1.558 0 0 0 1.649 0l3.159-1.981a4.358 4.358 0 0 1 4.595 0l3.157 1.981a1.569 1.569 0 0 0 1.652 0l3.159-1.979a4.33 4.33 0 0 1 4.592 0l.648.407zm-116.176-2.771h113.4V25.453a1.51 1.51 0 0 0-1 .227l-3.159 1.979a4.347 4.347 0 0 1-4.595 0l-3.159-1.984a1.565 1.565 0 0 0-1.646 0l-3.162 1.984a4.354 4.354 0 0 1-4.592 0l-3.159-1.984a1.569 1.569 0 0 0-1.652 0l-3.156 1.979a4.33 4.33 0 0 1-4.592 0l-3.162-1.979a1.553 1.553 0 0 0-1.649 0l-3.156 1.987a4.358 4.358 0 0 1-4.595 0l-3.156-1.984a1.57 1.57 0 0 0-1.652 0l-3.159 1.979a4.33 4.33 0 0 1-4.592 0l-3.162-1.979a1.548 1.548 0 0 0-1.646 0l-3.159 1.979a4.346 4.346 0 0 1-4.595 0l-3.159-1.984a1.566 1.566 0 0 0-1.646 0l-3.162 1.984a4.354 4.354 0 0 1-4.592 0l-3.162-1.982a1.553 1.553 0 0 0-1.649 0l-3.157 1.979a4.352 4.352 0 0 1-4.6 0l-3.157-1.976a1.571 1.571 0 0 0-1.649 0l-3.162 1.984a4.354 4.354 0 0 1-4.592 0l-3.156-1.984a1.587 1.587 0 0 0-1-.224zm44.143-18.709a1.387 1.387 0 0 1-.762-2.544l11.341-7.487a9.537 9.537 0 0 1 10.5-.014l.776.507a1.386 1.386 0 0 1-1.516 2.32l-.779-.51a6.773 6.773 0 0 0-7.452.008l-11.346 7.489a1.377 1.377 0 0 1-.762.231z" fill="#fff"/></g><rect width="31.084" height="31.083" rx="7.7" transform="translate(-6402.085 8215)" fill="#81ae33"/><g transform="translate(-6402.084 8215)" clip-path="url(#a)" fill="#fff"><path d="M-.282 29.456L29.105.069l1.959 1.96L1.677 31.415z"/><path d="M8.192 21.555H36.49v2.771H8.192zm8.866-8.866h28.298v2.771H17.058z"/><path d="M6.806-5.357h2.771v28.298H6.806zm8.867-8.866h2.771v28.298h-2.771zm-45.054 72.778L.006 29.168l1.959 1.96-29.387 29.386z"/><path d="M-20.907 50.654H7.391v2.771h-28.298zm8.866-8.866h28.298v2.771h-28.298z"/><path d="M-22.293 23.742h2.771V52.04h-2.771zm8.867-8.866h2.771v28.298h-2.771z"/></g><rect width="31.084" height="31.083" rx="7.7" transform="translate(-6436 8215)" fill="#ffed00"/><g transform="translate(-6436 8215)" clip-path="url(#a)" fill="#fff"><path d="M4.724 16.442A11.62 11.62 0 1 1 16.35 4.822a11.635 11.635 0 0 1-11.626 11.62zm0-20.8a9.177 9.177 0 1 0 9.179 9.176 9.183 9.183 0 0 0-9.179-9.171z"/><path d="M4.721 24.164A19.34 19.34 0 1 1 24.065 4.823 19.363 19.363 0 0 1 4.721 24.164zm0-36.238a16.9 16.9 0 1 0 16.9 16.9 16.913 16.913 0 0 0-16.9-16.9zm40.146 68.663A11.622 11.622 0 1 1 56.49 44.966a11.638 11.638 0 0 1-11.623 11.623zm0-20.8a9.177 9.177 0 1 0 9.176 9.176 9.183 9.183 0 0 0-9.176-9.175z"/><path d="M44.868 64.307a19.34 19.34 0 1 1 19.341-19.34 19.362 19.362 0 0 1-19.341 19.34zm0-36.235a16.9 16.9 0 1 0 16.894 16.895 16.913 16.913 0 0 0-16.894-16.895z"/></g><rect width="31.084" height="31.083" rx="7.7" transform="translate(-6436 8248.917)" fill="#b18274"/><g transform="translate(-6436 8248.915)" clip-path="url(#a)" fill="#fff"><path d="M15.543 43.795l-19.56-14.236 19.56-14.236 19.56 14.236zM.691 29.559l14.852 10.808 14.852-10.808-14.852-10.811z"/><path d="M15.543 52.086L-15.41 29.558 15.543 7.03l30.951 22.528zm-26.245-22.528l26.245 19.1 26.242-19.1-26.242-19.1zm68.616-16.665L38.354-1.346l19.56-14.234 19.56 14.234zM43.062-1.346L57.914 9.465 72.766-1.346 57.914-12.154z"/><path d="M57.915 21.193L26.962-1.338l30.953-22.525 30.952 22.52zM31.667-1.343l26.245 19.1 26.242-19.1-26.242-19.1z"/></g></g></svg>